<svg data-v-0dd9719b="" version="1.0" xmlns="http://www.w3.org/2000/svg" xmlns:xlink="http://www.w3.org/1999/xlink" width="100%" height="100%" viewBox="0 0 340.000000 250.000000" preserveAspectRatio="xMidYMid meet" color-interpolation-filters="sRGB" style="margin: auto;"> <rect data-v-0dd9719b="" x="0" y="0" width="100%" height="100%" fill="#fff" fill-opacity="1" class="background"></rect> <rect data-v-0dd9719b="" x="0" y="0" width="100%" height="100%" fill="url(#watermark)" fill-opacity="1" class="watermarklayer"></rect> <g data-v-0dd9719b="" fill="#fcc800" class="icon-text-wrapper icon-svg-group iconsvg" transform="translate(48.73999786376953,95.02937126159668)"><g class="iconsvg-imagesvg" transform="translate(0,0)"><g><rect fill="#fcc800" fill-opacity="0" stroke-width="2" x="0" y="0" width="60" height="59.94125756758377" class="image-rect"></rect> <svg x="0" y="0" width="60" height="59.94125756758377" filtersec="colorsb6437046018" class="image-svg-svg primary" style="overflow: visible;"><svg xmlns="http://www.w3.org/2000/svg" viewBox="0 0 81.5999984741211 81.5199966430664"><g><g><path fill="#006934" d="M0 0h36.6v81.52H0z"></path><path fill="#915da3" d="M45 0h36.6v81.52H45z"></path><path fill="#fcc800" d="M0 27.2h81.5v27.18H0z"></path></g></g></svg></svg> <!----></g></g> <g transform="translate(67,1.9865665435791016)"><g data-gra="path-name" fill-rule="" class="tp-name iconsvg-namesvg" transform="translate(0,0)"><g transform="scale(1)"><g><path d="M40.96-31.38L39.42-31.38 39.42-1.71Q39.73 3.56 34.45 3.21L34.45 3.21 30.72 3.21Q28.56 3.21 28.56 1.23L28.56 1.23Q28.56-0.79 30.72-0.79L30.72-0.79 33.71-0.79Q35.51-0.83 35.55-2.64L35.55-2.64 35.55-31.38 16.3-31.38Q13.97-31.38 13.97-33.22L13.97-33.22Q13.97-35.11 16.3-35.11L16.3-35.11 40.96-35.11Q43.24-35.11 43.24-33.22L43.24-33.22Q43.24-31.38 40.96-31.38L40.96-31.38ZM15.56-12.04L15.56-12.04 15.56-22.06Q15.34-26.1 19.29-25.84L19.29-25.84 26.98-25.84Q30.98-26.06 30.72-22.06L30.72-22.06 30.72-12.04Q30.94-7.95 26.98-8.22L26.98-8.22 19.29-8.22Q15.34-7.95 15.56-12.04ZM27.33-13.23L27.33-13.23 27.33-20.83Q27.29-22.24 25.88-22.28L25.88-22.28 20.39-22.28Q18.98-22.24 18.94-20.83L18.94-20.83 18.94-13.23Q18.98-11.82 20.39-11.78L20.39-11.78 25.88-11.78Q27.29-11.82 27.33-13.23ZM4.75-25.27L4.75-25.27Q5.67-25.27 9.1-23.64L9.1-23.64Q11.12-22.68 11.12-21.31L11.12-21.31Q11.12-19.2 9.14-19.2L9.14-19.2Q8.57-19.2 7.12-19.95L7.12-19.95 5.84-20.52Q2.68-21.88 2.68-23.25L2.68-23.25Q2.68-25.27 4.75-25.27ZM9.58-13.89L9.58-13.89Q11.56-13.89 11.56-12.13L11.56-12.13Q11.56-11.07 9.47-5.36 7.38 0.35 6.7 1.54 6.02 2.72 4.88 2.72L4.88 2.72Q2.72 2.72 2.72 0.79L2.72 0.79Q2.72 0.13 3.16-0.79L3.16-0.79Q5.54-6.11 7.43-11.82L7.43-11.82Q8-13.89 9.58-13.89ZM6.94-36.78L6.94-36.78Q7.87-36.78 10.46-35.38 13.05-33.97 13.05-32.65L13.05-32.65Q13.05-30.54 11.03-30.54L11.03-30.54Q10.42-30.54 8.96-31.42L8.96-31.42 7.73-32.08Q4.88-33.57 4.88-34.76L4.88-34.76Q4.88-36.78 6.94-36.78ZM80.42-22.32L75.85-22.32 74.49-16.88 74.44-16.66 77.96-16.66Q79.85-16.66 79.85-15.07L79.85-15.07Q79.85-13.54 77.96-13.54L77.96-13.54 69.17-13.54 69.17-9.4 78.57-9.4Q80.38-9.4 80.38-7.82L80.38-7.82Q80.38-6.28 78.57-6.28L78.57-6.28 69.17-6.28 69.17 0.31Q69.17 2.55 67.32 2.55 65.48 2.55 65.48 0.31L65.48 0.31 65.48-6.28 56.47-6.28Q54.67-6.28 54.67-7.82L54.67-7.82Q54.67-9.4 56.47-9.4L56.47-9.4 65.48-9.4 65.48-13.54 57.04-13.54Q55.2-13.54 55.2-15.12L55.2-15.12Q55.2-16.66 57.04-16.66L57.04-16.66 60.29-16.66 59.02-22.32 54.62-22.32Q52.82-22.28 52.78-20.48L52.78-20.48 52.78 1.05Q52.78 3.38 50.84 3.38 48.91 3.38 48.91 1.05L48.91 1.05 48.91-21.23Q48.87-23.42 50.01-24.7L50.01-24.7Q51.28-25.88 53.48-25.8L53.48-25.8 65.35-25.8 65.35-29.88 49.26-29.88Q47.11-29.88 47.11-31.68 47.11-33.49 49.26-33.49L49.26-33.49 65.35-33.49 65.35-35.82Q65.35-37.79 67.28-37.79L67.28-37.79Q69.26-37.79 69.26-35.82L69.26-35.82 69.26-33.49 85.78-33.49Q87.93-33.49 87.93-31.68 87.93-29.88 85.78-29.88L85.78-29.88 69.26-29.88 69.26-25.8 81.56-25.8Q83.76-25.88 85.03-24.7L85.03-24.7Q86.13-23.47 86.13-21.4L86.13-21.4 86.13-1.98Q86.22 0.57 84.86 1.98L84.86 1.98Q83.41 3.34 80.86 3.25L80.86 3.25 78.09 3.25Q75.67 3.25 75.67 1.23L75.67 1.23Q75.67-0.75 78.09-0.75L78.09-0.75 80.6-0.75Q82.22-0.79 82.27-2.42L82.27-2.42 82.27-20.48Q82.22-22.28 80.42-22.32L80.42-22.32ZM71.15-16.79L72.33-22.32 62.49-22.32 63.72-16.66 71.15-16.66 71.15-16.79ZM124.15-18.63L115.71-18.63Q114.21-15.64 111.84-12.55 109.47-9.45 108.19-9.45L108.19-9.45Q106.66-9.45 106.66-11.16L106.66-11.16Q106.66-11.95 107.62-12.92L107.62-12.92Q110.52-15.73 112.24-18.63L112.24-18.63 109.91-18.63Q108.19-18.63 108.19-20.13 108.19-21.62 109.91-21.62L109.91-21.62 113.73-21.62 114.96-25 111.01-25Q109.34-25 109.34-26.46 109.34-27.91 111.01-27.91L111.01-27.91 115.8-27.91 116.41-30.63 110.65-30.63Q108.94-30.63 108.94-32.12 108.94-33.62 110.65-33.62L110.65-33.62 116.85-33.62 117.16-35.9Q117.33-37.79 118.83-37.79L118.83-37.79Q120.5-37.79 120.5-36.39L120.5-36.39 120.37-35.46 120.23-34.54 120.1-33.62 129.81-33.62Q131.57-33.62 131.57-32.12 131.57-30.63 129.81-30.63L129.81-30.63 119.58-30.63 118.96-27.91 127.88-27.91Q129.55-27.91 129.55-26.46 129.55-25 127.88-25L127.88-25 124.58-25Q124.98-23.25 125.73-21.62L125.73-21.62 131.26-21.62Q133.02-21.62 133.02-20.13 133.02-18.63 131.26-18.63L131.26-18.63 127.53-18.63Q129.33-16.3 131.88-14.5L131.88-14.5Q133.2-13.58 133.2-12.61L133.2-12.61Q133.2-10.85 131.48-10.85L131.48-10.85Q130.17-10.85 127.77-13.56 125.38-16.26 124.15-18.63L124.15-18.63ZM118.17-25L117.03-21.62 122.87-21.62 122.83-21.75 121.82-25 118.17-25ZM118.08 1.98L118.08-5.05Q115.05-1.93 111.49 0.22 107.93 2.37 106.74 2.37L106.74 2.37Q105.25 2.37 105.25 0.75L105.25 0.75Q105.25-0.35 106.92-1.01L106.92-1.01Q113.73-3.74 117.03-7.25L117.03-7.25 111.27-7.25Q109.56-7.25 109.56-8.7L109.56-8.7Q109.56-10.2 111.27-10.2L111.27-10.2 118.08-10.2 118.08-13.05 114.74-12.74Q113.38-12.74 113.38-14.11L113.38-14.11Q113.38-15.25 115.18-15.34L115.18-15.34 122.96-16.22 124.06-16.39Q125.6-16.39 125.6-14.9L125.6-14.9Q125.6-14.11 124.63-13.84L124.63-13.84 121.38-13.4 121.2-13.36 121.2-10.2 128.41-10.2Q130.12-10.2 130.12-8.7L130.12-8.7Q130.12-7.25 128.41-7.25L128.41-7.25 121.2-7.25 121.2-4.97Q121.73-5.54 122.39-5.54L122.39-5.54Q123.27-5.54 126.41-3.93 129.55-2.33 130.83-1.38 132.1-0.44 132.1 0.18L132.1 0.18Q132.1 1.89 130.39 1.89L130.39 1.89Q129.77 1.89 128.28 0.83L128.28 0.83Q126.34-0.62 123.88-2 121.42-3.38 121.2-3.65L121.2-3.65 121.2 1.98Q121.2 3.6 119.62 3.6L119.62 3.6Q118.08 3.6 118.08 1.98L118.08 1.98ZM106.48-31.86L101.34-31.86 101.16-31.38Q99.58-26.1 98.39-23.16L98.39-23.16 103.54-23.6Q102.39-25.88 102.39-26.28L102.39-26.28Q102.39-27.47 103.71-27.47L103.71-27.47Q104.72-27.47 106.35-24.28 107.97-21.09 107.97-20.26L107.97-20.26Q107.97-18.9 106.48-18.9L106.48-18.9Q105.42-18.9 104.81-20.52L104.81-20.52 104.63-21.05 102.44-20.74 101.82-20.7 101.82-15.12 105.12-15.12Q106.92-15.12 106.92-13.49L106.92-13.49Q106.92-11.82 105.12-11.82L105.12-11.82 101.82-11.82 101.82-4.7 105.69-5.54 106.17-5.63Q107.71-5.63 107.71-4.09L107.71-4.09Q107.71-3.21 107.27-2.92 106.83-2.64 103.86-1.85 100.9-1.05 97.69-0.31 94.48 0.44 93.6 0.44L93.6 0.44Q91.8 0.44 91.8-1.36L91.8-1.36Q91.8-2.55 92.46-2.83 93.12-3.12 96.81-3.74L96.81-3.74 98.48-4.04 98.48-11.82 94.35-11.82Q92.59-11.82 92.59-13.49L92.59-13.49Q92.59-15.12 94.35-15.12L94.35-15.12 98.48-15.12 98.48-20.3 94.09-19.73 93.43-19.69Q91.85-19.69 91.85-21.36 91.85-23.03 95.23-23.03L95.23-23.03 95.32-23.33Q96.11-25.62 97.6-31.86L97.6-31.86 93.82-31.86Q92.07-31.86 92.07-33.49 92.07-35.11 93.82-35.11L93.82-35.11 106.48-35.11Q108.19-35.11 108.19-33.49 108.19-31.86 106.48-31.86L106.48-31.86ZM157.59-17.4L157.59-17.4Q154.25-5.1 144.01 1.1L144.01 1.1Q140.45 3.25 139 3.25L139 3.25Q136.8 3.25 136.8 1.01L136.8 1.01Q136.8-0.35 139.22-1.49L139.22-1.49Q152.58-7.87 154.29-22.41L154.29-22.41 139.75-22.41Q137.24-22.41 137.24-24.48 137.24-26.54 139.75-26.54L139.75-26.54 154.78-26.54Q154.95-28.08 154.95-35.29L154.95-35.29Q154.95-37.79 157.02-37.79L157.02-37.79Q159.21-37.79 159.21-34.8L159.21-34.8 159.21-33.97 158.99-26.67 158.99-26.54 175.21-26.54Q177.76-26.54 177.76-24.48 177.76-22.41 175.21-22.41L175.21-22.41 159.61-22.41Q161.06-16.17 165.48-10.72 169.89-5.27 176.4-1.76L176.4-1.76Q178.2-0.7 178.2 0.66L178.2 0.66Q178.2 3.08 175.96 3.08L175.96 3.08Q174.73 3.08 170.05-0.31 165.37-3.69 162.25-7.95 159.13-12.22 157.59-17.4Z" transform="translate(-2.680000066757202, 37.790000915527344)"></path></g> <!----> <!----> <!----> <!----> <!----> <!----> <!----></g></g> <g data-gra="path-slogan" fill-rule="" class="tp-slogan iconsvg-slogansvg" fill="#fcc800" transform="translate(41.165000915527344,47.38999938964844)"><!----> <!----> <g transform="scale(1, 1)"><g transform="scale(1)"><path d="M2.06-5.06L6.56-5.06L6.56-8.58L7.73-8.58L7.73 0L6.56 0L6.56-3.98L2.06-3.98L2.06 0L0.89 0L0.89-8.58L2.06-8.58L2.06-5.06ZM10.83-1.03L15.98-1.03L15.98 0L9.66 0L9.66-8.58L15.89-8.58L15.89-7.59L10.83-7.59L10.83-4.92L15.52-4.92L15.52-3.89L10.83-3.89L10.83-1.03ZM18.89-8.58L23.20-1.64L23.20-8.58L24.33-8.58L24.33 0L23.02 0L18.66-6.94L18.61-6.94L18.61 0L17.48 0L17.48-8.58L18.89-8.58ZM31.78 0L30.94-2.48L27.47-2.48L26.58 0L25.41 0L28.64-8.58L29.95-8.58L33.05 0L31.78 0ZM29.20-7.31L27.84-3.52L30.52-3.52L29.25-7.31L29.20-7.31ZM35.48-8.58L39.80-1.64L39.80-8.58L40.92-8.58L40.92 0L39.61 0L35.25-6.94L35.20-6.94L35.20 0L34.08 0L34.08-8.58L35.48-8.58ZM46.88-1.03L52.17-1.03L52.17 0L45.42 0L45.42-0.94L50.67-7.59L45.80-7.59L45.80-8.58L52.17-8.58L52.17-7.59L46.88-1.03ZM54.47-5.06L58.97-5.06L58.97-8.58L60.14-8.58L60.14 0L58.97 0L58.97-3.98L54.47-3.98L54.47 0L53.30 0L53.30-8.58L54.47-8.58L54.47-5.06ZM63.23-1.03L68.39-1.03L68.39 0L62.06 0L62.06-8.58L68.30-8.58L68.30-7.59L63.23-7.59L63.23-4.92L67.92-4.92L67.92-3.89L63.23-3.89L63.23-1.03ZM71.30-8.58L75.61-1.64L75.61-8.58L76.73-8.58L76.73 0L75.42 0L71.06-6.94L71.02-6.94L71.02 0L69.89 0L69.89-8.58L71.30-8.58ZM82.03 0L78.56 0L78.56-8.58L82.08-8.58Q85.55-8.39 85.69-4.41L85.69-4.41Q85.50-0.09 82.03 0L82.03 0ZM81.89-7.64L79.73-7.64L79.73-0.98L81.98-0.98Q84.42-1.13 84.52-4.31L84.52-4.31Q84.47-7.55 81.89-7.64L81.89-7.64ZM92.81 0L91.97-2.48L88.50-2.48L87.61 0L86.44 0L89.67-8.58L90.98-8.58L94.08 0L92.81 0ZM90.23-7.31L88.88-3.52L91.55-3.52L90.28-7.31L90.23-7.31Z" transform="translate(-0.890625, 8.578125)"></path></g></g></g></g></g><defs v-gra="od"></defs></svg>